PathFileType	4	(X/Y/Z)	c:/Users/goper/Files/vsCode/490R/osim_files/A03/A03_Fast_05.trc
DataRate	CameraRate	NumFrames	NumMarkers	Units                	OrigDataRate	OrigDataStartFrame	OrigNumFrames
250.00	250.00	4	36	mm	250.0	1627	2602
                Frame#	Time	LPSIS			LASIS			LTH1			LTH2			LTH3			LTH4			LLFE			LMFE			LSH1			LSH2			LSH3			LSH4			LLMAL			LMMAL			LCAL			LMTP5			LTOE			LMTP1			RPSIS			RASIS			RTH1			RTH2			RTH3			RTH4			RLFE			RMFE			RSH1			RSH2			RSH3			RSH4			RLMAL			RMMAL			RCAL			RMTP1			RTOE			RMTP5		
		X1	Y1	Z1	X2	Y2	Z2	X3	Y3	Z3	X4	Y4	Z4	X5	Y5	Z5	X6	Y6	Z6	X7	Y7	Z7	X8	Y8	Z8	X9	Y9	Z9	X10	Y10	Z10	X11	Y11	Z11	X12	Y12	Z12	X13	Y13	Z13	X14	Y14	Z14	X15	Y15	Z15	X16	Y16	Z16	X17	Y17	Z17	X18	Y18	Z18	X19	Y19	Z19	X20	Y20	Z20	X21	Y21	Z21	X22	Y22	Z22	X23	Y23	Z23	X24	Y24	Z24	X25	Y25	Z25	X26	Y26	Z26	X27	Y27	Z27	X28	Y28	Z28	X29	Y29	Z29	X30	Y30	Z30	X31	Y31	Z31	X32	Y32	Z32	X33	Y33	Z33	X34	Y34	Z34	X35	Y35	Z35	X36	Y36	Z36

1627	6.50400	-2698.87427	1063.48303	260.99814	-2919.55664	966.51556	405.95029	-2765.89380	632.17657	423.84552	-2762.64062	589.86719	419.65173	-2824.98315	621.11969	406.82471	-2811.06641	579.67212	405.86011	-2739.25806	548.47559	408.52341	-2759.28516	540.13226	253.71088	-2682.60254	470.56454	407.59030	-2678.74829	422.95355	406.60165	-2742.43555	454.34244	402.55328	-2726.10669	409.75748	396.54822	-2621.06982	101.21413	370.06076	-2629.02612	107.99768	273.34167	-2548.36963	88.78505	320.29291	-2771.14575	43.61410	372.48517	-2797.49707	73.35974	305.00058	-2764.77417	52.25573	260.49100	-2708.00391	1062.58752	180.78421	-2963.32764	987.58777	109.15109	-3002.53247	628.10132	48.71883	-3017.95020	586.51587	56.41003	-3060.90942	645.14587	55.58510	-3069.03687	602.15765	61.92622	-3047.33618	563.25568	77.38785	-3071.57227	573.10693	195.78412	-3017.06079	487.82550	62.89106	-3029.92358	449.30173	49.26633	-3079.04663	500.62131	64.87501	-3084.64526	455.30603	51.69360	-3140.74561	150.93773	75.61149	0.00000	0.00000	0.00000	-3105.01123	86.02143	131.05597	-3320.93555	135.48732	171.06343	-3332.81274	166.28516	121.22681	-3313.17090	120.91151	56.52173
1628	6.50800	-2704.18604	1062.39734	260.25482	-2924.52954	965.00037	405.75964	-2769.60156	632.39484	423.14136	-2765.01880	589.44885	419.45993	-2828.13501	620.38159	407.17679	-2813.36328	578.87189	405.79767	-2741.27368	548.12262	408.30316	-2761.39844	539.60724	253.50168	-2684.30103	470.47244	407.37610	-2680.18164	422.85739	406.41769	-2744.08569	454.37625	401.86609	-2727.18799	409.38211	396.15079	-2621.15674	101.26475	370.04883	-2629.15991	108.01170	273.29041	-2548.50024	88.83722	320.33231	-2771.16553	43.59092	372.52744	-2797.54492	73.27600	305.01480	-2764.84644	52.19665	260.52917	-2713.71631	1061.25989	180.14407	-2970.78760	986.58215	108.56111	-3007.45386	625.88922	48.69317	-3022.85474	584.31830	56.69153	-3065.80811	643.04010	55.69926	-3073.97778	600.07416	62.26591	-3052.41748	561.55237	77.87427	-3075.99194	571.26019	196.64723	-3024.43481	485.46082	63.43332	-3037.69897	447.57349	49.46891	-3085.86035	500.08835	65.27906	-3091.65479	454.77090	51.89065	-3156.05054	151.10289	76.08253	0.00000	0.00000	0.00000	0.00000	0.00000	0.00000	-3336.49609	141.23691	169.29324	-3347.01514	172.09648	119.16457	-3328.23071	125.92139	54.81166
1629	6.51200	-2709.85962	1061.18860	259.56998	-2929.55957	963.56586	405.59378	-2772.39746	631.90948	422.82761	-2767.37842	588.93225	419.27490	-2830.81885	619.42419	407.18948	-2815.83447	578.05634	405.80917	-2743.44824	547.76001	408.11215	-2765.24780	539.03436	253.78400	-2686.05884	470.35559	407.20013	-2681.75171	422.77069	406.25229	-2745.77637	454.03278	401.70435	-2728.67432	409.04596	395.97159	-2621.26318	101.34132	370.05432	-2629.25024	108.05822	273.24081	-2548.59546	89.05289	320.30176	-2771.22656	43.56054	372.55164	-2797.91138	72.92107	303.99634	-2765.05933	52.48682	260.31207	-2719.27271	1059.96021	179.46947	-2975.10864	984.33783	108.65263	-3012.43262	623.66656	48.61431	-3027.87500	582.17889	56.96421	-3070.67993	640.97711	55.74456	-3077.69360	598.38531	62.57111	-3057.76611	559.84369	78.28040	-3080.54468	569.54303	197.40501	-3029.88257	483.87921	63.92194	-3044.03467	446.12595	49.80319	-3091.79834	499.49844	65.58291	-3098.37720	454.26593	52.07556	-3171.35083	151.68817	75.59413	0.00000	0.00000	0.00000	0.00000	0.00000	0.00000	-3351.40845	146.96272	167.52280	-3360.68652	177.85487	117.06168	-3342.74121	130.84961	53.11428
1630	6.51600	-2715.40576	1059.94446	258.80499	-2934.54565	962.06647	405.42029	-2775.27856	631.47198	422.54355	-2769.94458	588.44446	419.15817	-2833.11157	618.31128	406.84363	-2819.32202	577.49994	406.50742	-2745.80518	547.33923	407.92554	-2767.66089	538.48187	253.65082	-2687.97729	470.23611	407.01685	-2683.42163	422.61795	406.07782	-2747.50854	453.62302	401.55005	-2730.64819	408.82434	396.16547	-2621.15137	101.35430	369.99084	-2629.40820	108.13720	273.16501	-2548.96362	89.23611	320.32465	-2771.54956	43.57669	372.73865	-2797.58960	72.75805	303.92654	-2765.14233	52.41110	260.31070	-2725.04102	1058.52063	178.86443	-2981.04321	982.67249	108.38883	-3016.06445	621.72253	48.38207	-3031.59106	579.90240	57.29510	-3075.70142	639.04755	55.87221	-3083.47119	596.61017	63.02762	-3063.29712	558.22400	78.63971	-3085.20996	568.00885	198.04604	-3036.84033	482.19211	64.03519	-3051.43994	444.53772	50.19242	-3097.62378	498.87201	65.84644	-3105.01807	453.85107	52.25656	-3184.85693	152.56190	74.87778	0.00000	0.00000	0.00000	-3153.91870	85.65435	130.23128	-3365.65234	152.61790	165.69540	-3373.74170	183.39743	114.98563	-3356.78931	135.67056	51.44754
